<svg xmlns="http://www.w3.org/2000/svg" xmlns:xlink="http://www.w3.org/1999/xlink" width="1920" zoomAndPan="magnify" viewBox="0 0 1440 809.999993" height="1080" preserveAspectRatio="xMidYMid meet" version="1.0"><defs><clipPath id="f4fbe6cfdb"><path d="M 0 0 L 599.289062 0 L 599.289062 810 L 0 810 Z M 0 0 " clip-rule="nonzero"/></clipPath><clipPath id="99f667a07e"><path d="M 546 0 L 1228.902344 0 L 1228.902344 810 L 546 810 Z M 546 0 " clip-rule="nonzero"/></clipPath><clipPath id="13167af653"><path d="M 350.554688 0 L 652.125 0 L 652.125 370.140625 L 350.554688 370.140625 Z M 350.554688 0 " clip-rule="nonzero"/></clipPath><clipPath id="dbbd90072e"><path d="M 0 21.339844 L 146.195312 21.339844 L 146.195312 197.292969 L 0 197.292969 Z M 0 21.339844 " clip-rule="nonzero"/></clipPath><clipPath id="976453d61c"><path d="M 7.222656 58.316406 L 109.21875 58.316406 L 109.21875 160.3125 L 7.222656 160.3125 Z M 7.222656 58.316406 " clip-rule="nonzero"/></clipPath><clipPath id="007e019836"><path d="M 58.21875 58.316406 C 30.054688 58.316406 7.222656 81.148438 7.222656 109.316406 C 7.222656 137.480469 30.054688 160.3125 58.21875 160.3125 C 86.386719 160.3125 109.21875 137.480469 109.21875 109.316406 C 109.21875 81.148438 86.386719 58.316406 58.21875 58.316406 Z M 58.21875 58.316406 " clip-rule="nonzero"/></clipPath><clipPath id="dd70dc707e"><path d="M 739.203125 0 L 1099.503906 0 L 1099.503906 225.753906 L 739.203125 225.753906 Z M 739.203125 0 " clip-rule="nonzero"/></clipPath><clipPath id="1b9cd77bbf"><path d="M 919.351562 -134.546875 C 819.859375 -134.546875 739.203125 -53.890625 739.203125 45.605469 C 739.203125 145.097656 819.859375 225.753906 919.351562 225.753906 C 1018.847656 225.753906 1099.503906 145.097656 1099.503906 45.605469 C 1099.503906 -53.890625 1018.847656 -134.546875 919.351562 -134.546875 Z M 919.351562 -134.546875 " clip-rule="nonzero"/></clipPath><clipPath id="2bd19df3c5"><path d="M 809.640625 0 L 1029.0625 0 L 1029.0625 155.316406 L 809.640625 155.316406 Z M 809.640625 0 " clip-rule="nonzero"/></clipPath><clipPath id="46701405a8"><path d="M 919.351562 -64.105469 C 858.761719 -64.105469 809.640625 -14.988281 809.640625 45.605469 C 809.640625 106.195312 858.761719 155.316406 919.351562 155.316406 C 979.945312 155.316406 1029.0625 106.195312 1029.0625 45.605469 C 1029.0625 -14.988281 979.945312 -64.105469 919.351562 -64.105469 Z M 919.351562 -64.105469 " clip-rule="nonzero"/></clipPath><clipPath id="0b9598d562"><path d="M 475.097656 283.707031 L 739.203125 283.707031 L 739.203125 547.816406 L 475.097656 547.816406 Z M 475.097656 283.707031 " clip-rule="nonzero"/></clipPath><clipPath id="f508ac0983"><path d="M 607.148438 283.707031 L 626.644531 312.160156 L 655.058594 292.703125 L 663 326.304688 L 696.496094 318.46875 L 691.816406 352.683594 L 725.863281 357.527344 L 709.195312 387.738281 L 739.203125 404.605469 L 712.792969 426.726562 L 734.707031 453.34375 L 702.121094 464.390625 L 712.980469 497.160156 L 678.625 495.636719 L 676.964844 530.132812 L 645.476562 516.25 L 631.519531 547.816406 L 607.148438 523.445312 L 582.78125 547.816406 L 568.824219 516.25 L 537.335938 530.132812 L 535.671875 495.636719 L 501.316406 497.160156 L 512.175781 464.390625 L 479.59375 453.34375 L 501.507812 426.726562 L 475.097656 404.605469 L 505.105469 387.738281 L 488.433594 357.527344 L 522.484375 352.683594 L 517.804688 318.46875 L 551.296875 326.304688 L 559.242188 292.703125 L 587.65625 312.160156 Z M 607.148438 283.707031 " clip-rule="nonzero"/></clipPath><clipPath id="419df6df83"><path d="M 0 355.417969 L 263.476562 355.417969 L 263.476562 617.003906 L 0 617.003906 Z M 0 355.417969 " clip-rule="nonzero"/></clipPath><clipPath id="8c108cd4e9"><path d="M 255.023438 442.660156 C 260.125 456.027344 263.476562 471.320312 263.476562 486.28125 C 263.476562 501.246094 260.605469 515.644531 255.5 528.914062 C 255.34375 529.199219 255.34375 529.480469 255.183594 529.761719 C 234.765625 579.597656 180.859375 616.300781 117.300781 617.003906 L -121.933594 617.003906 L -121.933594 355.417969 L 117.121094 355.417969 C 181.175781 356.125 235.085938 392.261719 255.023438 442.660156 Z M 255.023438 442.660156 " clip-rule="nonzero"/></clipPath><clipPath id="e0fb3acbb1"><path d="M 571.570312 55 L 1440 55 L 1440 810 L 571.570312 810 Z M 571.570312 55 " clip-rule="nonzero"/></clipPath><clipPath id="a4c3c3336c"><path d="M 591.511719 232 L 1440 232 L 1440 810 L 591.511719 810 Z M 591.511719 232 " clip-rule="nonzero"/></clipPath><clipPath id="03acf7c172"><path d="M 629.0625 693.332031 L 829.914062 693.332031 L 829.914062 810 L 629.0625 810 Z M 629.0625 693.332031 " clip-rule="nonzero"/></clipPath><clipPath id="362971438b"><path d="M 729.488281 693.332031 C 674.023438 693.332031 629.0625 738.292969 629.0625 793.757812 C 629.0625 849.21875 674.023438 894.183594 729.488281 894.183594 C 784.949219 894.183594 829.914062 849.21875 829.914062 793.757812 C 829.914062 738.292969 784.949219 693.332031 729.488281 693.332031 Z M 729.488281 693.332031 " clip-rule="nonzero"/></clipPath><clipPath id="9849e82239"><path d="M 1130.160156 0 L 1440 0 L 1440 261.011719 L 1130.160156 261.011719 Z M 1130.160156 0 " clip-rule="nonzero"/></clipPath><clipPath id="7ea2a1eda4"><path d="M 1346.6875 252.558594 C 1330.085938 257.660156 1311.097656 261.011719 1292.511719 261.011719 C 1273.929688 261.011719 1256.042969 258.140625 1239.566406 253.035156 C 1239.214844 252.875 1238.863281 252.875 1238.511719 252.714844 C 1176.621094 232.300781 1131.039062 178.390625 1130.160156 115.023438 L 1130.160156 -115.914062 L 1455.039062 -115.914062 L 1455.039062 114.851562 C 1454.164062 178.710938 1409.28125 232.621094 1346.6875 252.558594 Z M 1346.6875 252.558594 " clip-rule="nonzero"/></clipPath></defs><rect x="-144" width="1728" fill="#ffffff" y="-80.999999" height="971.999992" fill-opacity="1"/><rect x="-144" width="1728" fill="#ffffff" y="-80.999999" height="971.999992" fill-opacity="1"/><g clip-path="url(#f4fbe6cfdb)"><path fill="#30bced" d="M -39.285156 -22.011719 L 599.289062 -22.011719 L 599.289062 888.453125 L -39.285156 888.453125 Z M -39.285156 -22.011719 " fill-opacity="1" fill-rule="nonzero"/></g><g clip-path="url(#99f667a07e)"><path fill="#a00def" d="M 546 -5.359375 L 1228.902344 -5.359375 L 1228.902344 888.285156 L 546 888.285156 Z M 546 -5.359375 " fill-opacity="1" fill-rule="nonzero"/></g><g clip-path="url(#13167af653)"><path fill="#ffcf00" d="M 350.554688 -22.011719 L 652.125 -22.011719 L 652.125 370.265625 L 350.554688 370.265625 Z M 350.554688 -22.011719 " fill-opacity="1" fill-rule="nonzero"/></g><g clip-path="url(#dbbd90072e)"><path fill="#d42e72" d="M -29.757812 21.339844 L 146.195312 21.339844 L 146.195312 197.292969 L -29.757812 197.292969 Z M -29.757812 21.339844 " fill-opacity="1" fill-rule="nonzero"/></g><g clip-path="url(#976453d61c)"><g clip-path="url(#007e019836)"><path fill="#000000" d="M 7.222656 58.316406 L 109.21875 58.316406 L 109.21875 160.3125 L 7.222656 160.3125 Z M 7.222656 58.316406 " fill-opacity="1" fill-rule="nonzero"/></g></g><g clip-path="url(#dd70dc707e)"><g clip-path="url(#1b9cd77bbf)"><path fill="#30bced" d="M 739.203125 -134.546875 L 1099.503906 -134.546875 L 1099.503906 225.753906 L 739.203125 225.753906 Z M 739.203125 -134.546875 " fill-opacity="1" fill-rule="nonzero"/></g></g><g clip-path="url(#2bd19df3c5)"><g clip-path="url(#46701405a8)"><path fill="#000000" d="M 809.640625 -64.105469 L 1029.0625 -64.105469 L 1029.0625 155.316406 L 809.640625 155.316406 Z M 809.640625 -64.105469 " fill-opacity="1" fill-rule="nonzero"/></g></g><g clip-path="url(#0b9598d562)"><g clip-path="url(#f508ac0983)"><path fill="#f6efee" d="M 475.097656 283.707031 L 739.203125 283.707031 L 739.203125 547.816406 L 475.097656 547.816406 Z M 475.097656 283.707031 " fill-opacity="1" fill-rule="nonzero"/></g></g><g clip-path="url(#419df6df83)"><g clip-path="url(#8c108cd4e9)"><path fill="#d42e72" d="M 263.476562 355.417969 L 263.476562 617.003906 L -121.753906 617.003906 L -121.753906 355.417969 Z M 263.476562 355.417969 " fill-opacity="1" fill-rule="nonzero"/></g></g><g clip-path="url(#e0fb3acbb1)"><path fill="#30bced" d="M 1486.460938 55.125 L 1486.460938 977.203125 L 571.570312 977.203125 L 571.570312 882.121094 L 662.660156 882.121094 L 662.660156 790.234375 L 753.75 790.234375 L 753.75 698.34375 L 844.839844 698.34375 L 844.839844 606.457031 L 935.929688 606.457031 L 935.929688 514.566406 L 1027.019531 514.566406 L 1027.019531 422.679688 L 1118.109375 422.679688 L 1118.109375 330.789062 L 1209.199219 330.789062 L 1209.199219 238.902344 L 1300.289062 238.902344 L 1300.289062 147.015625 L 1391.378906 147.015625 L 1391.378906 55.125 Z M 1486.460938 55.125 " fill-opacity="1" fill-rule="nonzero"/></g><g clip-path="url(#a4c3c3336c)"><path fill="#d42e72" d="M 1506.40625 232.269531 L 1506.40625 1154.347656 L 591.511719 1154.347656 L 591.511719 1059.265625 L 682.601562 1059.265625 L 682.601562 967.378906 L 773.691406 967.378906 L 773.691406 875.488281 L 864.78125 875.488281 L 864.78125 783.601562 L 955.871094 783.601562 L 955.871094 691.714844 L 1046.960938 691.714844 L 1046.960938 599.824219 L 1138.054688 599.824219 L 1138.054688 507.9375 L 1229.144531 507.9375 L 1229.144531 416.046875 L 1320.234375 416.046875 L 1320.234375 324.160156 L 1411.324219 324.160156 L 1411.324219 232.269531 Z M 1506.40625 232.269531 " fill-opacity="1" fill-rule="nonzero"/></g><g clip-path="url(#03acf7c172)"><g clip-path="url(#362971438b)"><path fill="#8ddf33" d="M 629.0625 693.332031 L 829.914062 693.332031 L 829.914062 894.183594 L 629.0625 894.183594 Z M 629.0625 693.332031 " fill-opacity="1" fill-rule="nonzero"/></g></g><g clip-path="url(#9849e82239)"><g clip-path="url(#7ea2a1eda4)"><path fill="#ffcf00" d="M 1455.039062 261.011719 L 1130.160156 261.011719 L 1130.160156 -115.902344 L 1455.039062 -115.902344 Z M 1455.039062 261.011719 " fill-opacity="1" fill-rule="nonzero"/></g></g></svg>